<svg width="20" height="20" viewBox="0 0 20 20" fill="none" xmlns="http://www.w3.org/2000/svg">
<path d="M9.91557 18.8487C4.99147 18.8487 1 14.8533 1 9.92436C1 4.99541 4.99147 1 9.91557 1C14.8397 1 18.8311 4.99541 18.8311 9.92436C18.8311 14.8533 14.8397 18.8487 9.91557 18.8487Z" stroke="white" stroke-width="0.6" stroke-miterlimit="10"/>
<path fill-rule="evenodd" clip-rule="evenodd" d="M13.7428 11.5731C13.5317 11.4694 12.5032 10.9661 12.3113 10.897C12.1194 10.824 11.9774 10.7933 11.8392 11.0007C11.701 11.2082 11.2942 11.6769 11.1752 11.8113C11.0524 11.9496 10.9334 11.9688 10.7185 11.8651C10.5113 11.7614 9.83578 11.5462 9.03365 10.8317C8.41574 10.2823 7.98973 9.60231 7.87075 9.39486C7.75177 9.18741 7.85924 9.076 7.96286 8.97227C8.05881 8.87623 8.17011 8.7264 8.27757 8.60731C8.30444 8.57273 8.3313 8.53815 8.35433 8.50742C8.40422 8.43059 8.43877 8.35759 8.48482 8.25771C8.55774 8.1194 8.51936 7.99647 8.46947 7.89274C8.41574 7.78902 7.9974 6.76327 7.82086 6.34836C7.64815 5.93346 7.4716 6.00261 7.34879 6.00261C7.22597 6.00261 7.08781 5.9834 6.94964 5.9834C6.81147 5.9834 6.5812 6.03718 6.3893 6.24464C6.1974 6.45209 5.65625 6.95536 5.65625 7.9811C5.65625 8.22313 5.69847 8.46132 5.76371 8.68798C5.9748 9.42175 6.43152 10.0249 6.51211 10.1286C6.61574 10.2631 7.95902 12.4337 10.0852 13.2712C12.2153 14.101 12.2153 13.8244 12.5991 13.786C12.9829 13.7552 13.8388 13.2865 14.0115 12.7986C14.188 12.3146 14.188 11.8997 14.1343 11.8113C14.0806 11.7268 13.9424 11.6769 13.7351 11.5693L13.7428 11.5731Z" fill="white"/>
</svg>
