<svg width="24" height="24" viewBox="0 0 24 24" fill="none" xmlns="http://www.w3.org/2000/svg">
<path d="M6.99501 7.00639C6.60449 7.39692 6.60449 8.03008 6.99501 8.42061L10.5802 12.0058L6.99501 15.5909C6.60449 15.9814 6.60449 16.6146 6.99501 17.0051C7.38553 17.3957 8.0187 17.3957 8.40922 17.0051L11.9944 13.42L15.5795 17.0051C15.97 17.3956 16.6032 17.3956 16.9937 17.0051C17.3843 16.6146 17.3843 15.9814 16.9937 15.5909L13.4086 12.0058L16.9937 8.42062C17.3843 8.0301 17.3843 7.39693 16.9937 7.00641C16.6032 6.61588 15.97 6.61588 15.5795 7.00641L11.9944 10.5915L8.40922 7.00639C8.0187 6.61587 7.38554 6.61587 6.99501 7.00639Z" fill="#344054"/>
</svg>
