<svg width="20" height="20" viewBox="0 0 20 20" fill="none" xmlns="http://www.w3.org/2000/svg">
<g clip-path="url(#clip0_167_210)">
<path fill-rule="evenodd" clip-rule="evenodd" d="M14.5 6.15186C15.33 6.15186 16 6.82186 16 7.65186V12.6519C16 13.4819 15.33 14.1519 14.5 14.1519H6.5C5.67 14.1519 5 13.4819 5 12.6519V7.65186C5 6.82186 5.67 6.15186 6.5 6.15186H14.5ZM14.125 7.15186H6.875L10.19 9.77186C10.37 9.91686 10.63 9.91686 10.81 9.77186L14.125 7.15186ZM6 7.73686V12.6519C6 12.9269 6.225 13.1519 6.5 13.1519H14.5C14.775 13.1519 15 12.9269 15 12.6519V7.73686L11.43 10.5569C10.885 10.9869 10.115 10.9869 9.57 10.5569L6 7.73686Z" fill="white"/>
</g>
<path d="M9.91557 18.8487C4.99147 18.8487 1 14.8533 1 9.92436C1 4.99541 4.99147 1 9.91557 1C14.8397 1 18.8311 4.99541 18.8311 9.92436C18.8311 14.8533 14.8397 18.8487 9.91557 18.8487Z" stroke="white" stroke-width="0.6" stroke-miterlimit="10"/>
<defs>
<clipPath id="clip0_167_210">
<rect width="11" height="8" fill="white" transform="translate(5 6.15186)"/>
</clipPath>
</defs>
</svg>
