<svg width="26" height="26" viewBox="0 0 26 26" fill="none" xmlns="http://www.w3.org/2000/svg">
<g id="Instagram">
<path id="Vector" d="M13 24.8307C6.37236 24.8307 1 19.4531 1 12.8137C1 6.17954 6.37236 0.80188 13 0.80188C19.6276 0.80188 25 6.17954 25 12.8137C25 19.4479 19.6276 24.8255 13 24.8255V24.8307Z" stroke="#E9EFFD" stroke-miterlimit="10"/>
<g id="Group">
<path id="Vector_2" d="M13.0001 8.03124C14.5601 8.03124 14.7409 8.03642 15.3557 8.06744C15.9239 8.09329 16.2338 8.18637 16.4405 8.2691C16.7142 8.37252 16.9054 8.50179 17.112 8.70345C17.3186 8.91029 17.4426 9.10161 17.5459 9.37566C17.6234 9.58249 17.7216 9.89274 17.7474 10.4615C17.7732 11.0769 17.7836 11.263 17.7836 12.8194C17.7836 14.3759 17.7784 14.562 17.7474 15.1773C17.7216 15.7461 17.6286 16.0564 17.5459 16.2632C17.4426 16.5373 17.3135 16.7286 17.112 16.9354C16.9105 17.1422 16.7142 17.2663 16.4405 17.3698C16.2338 17.4473 15.9239 17.5456 15.3557 17.5714C14.7409 17.5973 14.555 17.6076 13.0001 17.6076C11.4452 17.6076 11.2592 17.6024 10.6445 17.5714C10.0763 17.5456 9.76633 17.4525 9.5597 17.3698C9.28592 17.2663 9.09479 17.1371 8.88816 16.9354C8.68153 16.7286 8.55755 16.5373 8.45424 16.2632C8.37675 16.0564 8.2786 15.7461 8.25277 15.1773C8.22694 14.562 8.21661 14.3759 8.21661 12.8194C8.21661 11.263 8.22178 11.0769 8.25277 10.4615C8.2786 9.89274 8.37158 9.58249 8.45424 9.37566C8.55755 9.10161 8.68669 8.91029 8.88816 8.70345C9.09479 8.49662 9.28592 8.37252 9.5597 8.2691C9.76633 8.19154 10.0763 8.09329 10.6445 8.06744C11.2592 8.04159 11.4452 8.03124 13.0001 8.03124ZM13.0001 6.98157C11.4142 6.98157 11.2179 6.98674 10.5929 7.01776C9.97296 7.04362 9.54937 7.14703 9.17744 7.29182C8.79517 7.44177 8.46973 7.63826 8.14429 7.96403C7.81885 8.28979 7.62255 8.61555 7.47275 8.99819C7.32811 9.37049 7.22996 9.7945 7.20413 10.415C7.17313 11.0355 7.16797 11.2372 7.16797 12.8246C7.16797 14.412 7.17313 14.6085 7.20413 15.2342C7.22996 15.8547 7.33327 16.2787 7.47275 16.651C7.62255 17.0337 7.81885 17.3594 8.14429 17.6852C8.46973 18.0109 8.79517 18.2074 9.17744 18.3574C9.54937 18.5022 9.97296 18.6004 10.5929 18.6314C11.2127 18.6573 11.4142 18.6676 13.0001 18.6676C14.586 18.6676 14.7823 18.6625 15.4073 18.6314C16.0272 18.6056 16.4508 18.5022 16.8227 18.3574C17.205 18.2074 17.5304 18.0109 17.8559 17.6852C18.1813 17.3594 18.3776 17.0337 18.5274 16.651C18.6721 16.2787 18.7702 15.8547 18.796 15.2342C18.8219 14.6137 18.8322 14.412 18.8322 12.8246C18.8322 11.2372 18.827 11.0407 18.796 10.415C18.7702 9.7945 18.6669 9.37049 18.5274 8.99819C18.3776 8.61555 18.1813 8.28979 17.8559 7.96403C17.5304 7.63826 17.205 7.44177 16.8227 7.29182C16.4508 7.14703 16.0272 7.04879 15.4073 7.01776C14.7874 6.99191 14.586 6.98157 13.0001 6.98157Z" fill="#E9EFFD"/>
<path id="Vector_3" d="M13.0008 9.82092C11.3477 9.82092 10.0046 11.1653 10.0046 12.82C10.0046 14.4747 11.3477 15.8191 13.0008 15.8191C14.6538 15.8191 15.9969 14.4747 15.9969 12.82C15.9969 11.1653 14.6538 9.82092 13.0008 9.82092ZM13.0008 14.7642C11.9263 14.7642 11.0584 13.8904 11.0584 12.82C11.0584 11.7496 11.9315 10.8758 13.0008 10.8758C14.0701 10.8758 14.9431 11.7496 14.9431 12.82C14.9431 13.8904 14.0701 14.7642 13.0008 14.7642Z" fill="#E9EFFD"/>
<path id="Vector_4" d="M16.8118 9.70152C16.8118 10.0893 16.4967 10.4048 16.1093 10.4048C15.7218 10.4048 15.4067 10.0893 15.4067 9.70152C15.4067 9.31371 15.7218 8.99829 16.1093 8.99829C16.4967 8.99829 16.8118 9.31371 16.8118 9.70152Z" fill="#E9EFFD"/>
</g>
</g>
</svg>
