<svg width="26" height="26" viewBox="0 0 26 26" fill="none" xmlns="http://www.w3.org/2000/svg">
<g id="LinkedIn">
<path id="Vector" d="M13 24.8255C6.37237 24.8255 1 19.4479 1 12.8137C1 6.17954 6.37237 0.80188 13 0.80188C19.6276 0.80188 25 6.17954 25 12.8137C25 19.4479 19.6276 24.8255 13 24.8255Z" stroke="#E9EFFD" stroke-miterlimit="10"/>
<g id="Group">
<g id="Group_2">
<path id="Vector_2" d="M10.0756 10.4344H7.875V17.5547H10.0756V10.4344Z" fill="#E9EFFD"/>
<path id="Vector_3" d="M8.96584 9.49909C9.68387 9.49909 10.2676 8.90962 10.2676 8.1857C10.2676 7.46179 9.68387 6.87231 8.96584 6.87231C8.2478 6.87231 7.66406 7.46179 7.66406 8.1857C7.66406 8.90962 8.2478 9.49909 8.96584 9.49909Z" fill="#E9EFFD"/>
</g>
<path id="Vector_4" d="M13.5999 13.8167C13.5999 12.8135 14.0596 12.2189 14.9429 12.2189C15.754 12.2189 16.1414 12.7928 16.1414 13.8167V17.5552H18.3317V13.0462C18.3317 11.1382 17.252 10.2178 15.7436 10.2178C14.2352 10.2178 13.5999 11.3967 13.5999 11.3967V10.435H11.4871V17.5552H13.5999V13.8167Z" fill="#E9EFFD"/>
</g>
</g>
</svg>
